<?xml version="1.0" encoding="UTF-8" standalone="no"?>
<!-- Created with Inkscape (http://www.inkscape.org/) -->

<svg
   width="512"
   height="512"
   viewBox="0 0 135.46666 135.46667"
   version="1.1"
   id="svg1"
   xml:space="preserve"
   xmlns="http://www.w3.org/2000/svg"
   xmlns:svg="http://www.w3.org/2000/svg"><defs
     id="defs1" /><g
     id="layer4"
     style="opacity:1"
     transform="matrix(1.579544,-0.42014304,0.42014304,1.579544,-23.877727,41.661969)"><g
       id="layer1"
       style="display:inline"
       transform="matrix(0.98327749,0,0,0.98327749,-2.5224939,-0.43733365)"><path
         id="path3"
         style="display:inline;opacity:1;fill:#869496;fill-opacity:1;stroke-width:0.268494"
         d="m 87.579049,1.5890312 c 0,0 -6.998312,0.3965351 -14.326671,-0.5271259 C 72.877549,1.0146571 71.825675,0.813697 70.621999,0.5748869 L 53.587801,9.2127253 37.550646,5.1716016 45.879758,-3.4824036 c -0.940628,-0.015705 -1.702703,-0.01975 -1.96339,-0.00343 -3.181904,0.199142 -5.903604,0.6936096 -7.912865,1.2805781 -0.861696,-1.0412313 -2.075129,-1.9326195 -3.417364,-1.9629212 -0.249465,-0.00566 -0.503285,0.018416 -0.760038,0.076821 -2.054039,0.4670119 -6.115231,2.7543342 -9.10264,6.722692 -2.987408,3.968362 -3.64102,9.8509597 -3.64102,9.8509597 0,0 4.200774,-4.6688172 8.40216,-6.2564212 0.535301,-0.202273 1.100897,-0.3763403 1.677768,-0.5277243 -1.74e-4,0.0029 -0.08865,1.8371843 1.264306,4.4492555 1.35405,2.614167 2.894512,3.17417 2.894512,3.17417 0,0 0.606501,-1.86757 4.060984,-3.034956 0,0 3.799674,-0.9535136 6.557783,1.804126 0.189382,0.189341 0.382051,0.399207 0.573527,0.603928 -0.03702,-0.0088 -2.270225,-0.534924 -3.939797,-0.141931 -1.683489,0.396263 -3.413909,1.26604 -4.503109,2.883638 -1.0892,1.617597 -1.504657,3.917117 -1.504641,4.115174 0,0 -1.337976,0.352286 -2.831998,-1.374877 -1.494023,-1.727164 -1.213241,-3.408383 -1.213241,-3.408383 0,0 -2.678545,2.332847 -3.285187,5.180596 -0.606645,2.847753 -0.635504,4.857058 0.531639,5.463844 1.167139,0.606786 2.941404,0.910585 6.582676,0.373413 3.718865,-0.54862 5.835277,-1.727694 5.835277,-1.727694 0,0 0.60668,1.260147 0.980343,3.220811 0.373636,1.96068 0.326522,3.9676 0.326522,3.9676 0,0 3.253789,-1.50263 4.999908,-2.518737 2.948061,-1.715549 4.25028,-2.801939 6.066366,-4.40385 1.816087,-1.601914 4.414808,-4.39993 4.414808,-4.39993 0,0 -0.699294,2.181255 -1.589108,3.576072 -0.825542,1.294066 -1.840045,2.59352 -1.840045,2.59352 l -0.0073,0.0051 c 1.718033,3.140781 3.314018,5.984717 4.939415,9.168326 0.340726,0.667369 0.808267,1.760027 1.314638,2.988328 4.542945,-3.589847 9.792138,-7.754726 13.351497,-10.639795 1.162926,-0.942619 2.712717,-2.221035 4.161089,-3.411304 -2.909489,-5.64126 -5.991136,-10.677126 -6.822239,-12.116333 -0.625734,-1.083574 -1.446097,-2.1163751 -2.361272,-3.0546301 -0.02027,-7.1e-4 -0.77816,-0.032013 -1.456269,-0.071933 -0.611099,-0.03597 -1.196696,-0.2095441 -1.196696,-0.2095441 1.30522,-0.05547 1.982544,-0.1878318 3.159196,-0.3909088 1.071268,-0.184888 2.97975,-0.6754392 5.287324,-1.2910052 C 79.854988,5.4852378 87.579049,1.589032 87.579049,1.5890312 Z M 64.98407,-0.62292254 c -0.3955,-0.0914032 -0.885561,-0.19951504 -1.135828,-0.26459498 -1.841464,-0.47885718 -7.058134,-2.07732718 -11.22612,-2.32909368 -0.09097,-0.0055 -0.172817,-0.00819 -0.263425,-0.013511 l -5.52863,5.7454772 6.183611,1.5588544 z" /></g><g
       id="layer3"><path
         style="display:inline;opacity:1;fill:#2da0c8;fill-opacity:1;stroke-width:0.264004"
         d="m 59.716415,73.847371 c 0,0 -4.958117,-7.068623 -7.529189,-12.943974 -2.571063,-5.875352 -2.663553,-13.862453 -2.663553,-13.862453 0,0 14.730701,-11.558221 22.122765,-17.549921 7.392064,-5.991701 22.2231,-18.40332 22.2231,-18.40332 0,0 -9.002309,16.303767 -14.693571,24.474972 -5.691259,8.171207 -17.074003,21.943056 -17.074003,21.943056 0,0 -1.376818,3.121517 -2.019025,8.170891 -0.642208,5.049375 -0.366524,8.170749 -0.366524,8.170749 z"
         id="path4" /><path
         style="font-variation-settings:normal;display:inline;opacity:1;vector-effect:none;fill:#2da0c8;fill-opacity:1;stroke-width:0.264004;stroke-linecap:butt;stroke-linejoin:miter;stroke-miterlimit:4;stroke-dasharray:none;stroke-dashoffset:0;stroke-opacity:1;-inkscape-stroke:none;stop-color:#000000;stop-opacity:1"
         d="m 38.962256,3.3422798 9.455158,-9.8240323 24.46633,0.9159616 -22.996359,11.6613087 z"
         id="path5" /></g></g></svg>
